# Made in Blockbench 5.1.4
mtllib Planet.mtl

o sphere
v 0 -0.5 0
v 0 0.5 0
v 0.10696816798755514 0.4045084971874737 0.29389262614623657
v 0.17307813151817264 0.15450849718747373 0.4755282581475767
v 0.17307813151817267 -0.15450849718747367 0.4755282581475768
v 0.10696816798755517 -0.40450849718747367 0.2938926261462366
v 0.2708529093425231 0.4045084971874737 0.15637700011969904
v 0.4382492132679962 0.15450849718747373 0.2530233012524194
v 0.4382492132679963 -0.15450849718747367 0.25302330125241945
v 0.27085290934252315 -0.40450849718747367 0.15637700011969907
v 0.30800256422134115 0.4045084971874737 -0.05430916219961415
v 0.4983586175322522 0.15450849718747373 -0.08787407033950669
v 0.4983586175322523 -0.15450849718747367 -0.0878740703395067
v 0.3080025642213412 -0.40450849718747367 -0.05430916219961416
v 0.20103439623378605 0.4045084971874737 -0.23958346394662236
v 0.32528048601407966 0.15450849718747373 -0.3876541878080699
v 0.3252804860140797 -0.15450849718747367 -0.38765418780807
v 0.2010343962337861 -0.40450849718747367 -0.2395834639466224
v 3.830131853137093e-17 0.4045084971874737 -0.31275400023939803
v 6.197283519769437e-17 0.15450849718747373 -0.5060466025048387
v 6.197283519769438e-17 -0.15450849718747367 -0.5060466025048388
v 3.830131853137094e-17 -0.40450849718747367 -0.3127540002393981
v -0.201034396233786 0.4045084971874737 -0.2395834639466224
v -0.32528048601407955 0.15450849718747373 -0.38765418780807
v -0.3252804860140796 -0.15450849718747367 -0.38765418780807004
v -0.20103439623378602 -0.40450849718747367 -0.23958346394662242
v -0.30800256422134115 0.4045084971874737 -0.05430916219961416
v -0.4983586175322522 0.15450849718747373 -0.0878740703395067
v -0.4983586175322523 -0.15450849718747367 -0.08787407033950671
v -0.3080025642213412 -0.40450849718747367 -0.054309162199614174
v -0.2708529093425231 0.4045084971874737 0.15637700011969904
v -0.4382492132679962 0.15450849718747373 0.2530233012524194
v -0.4382492132679963 -0.15450849718747367 0.25302330125241945
v -0.27085290934252315 -0.40450849718747367 0.15637700011969907
v -0.10696816798755537 0.4045084971874737 0.29389262614623646
v -0.173078131518173 0.15450849718747373 0.47552825814757654
v -0.17307813151817303 -0.15450849718747367 0.47552825814757665
v -0.10696816798755539 -0.40450849718747367 0.2938926261462365
vt 0.15628782720196893 0.841822616939327
vt 0.19832585336494882 0.8748889551923185
vt 0.12954563970196892 0.9190757419393271
vt 0.22295625 0.5
vt 0.20642812500000002 0.42274687499999997
vt 0.29296875 0.42274687499999997
vt 0.276440625 0.5
vt 0.20642812500000002 0.42274687499999997
vt 0.20642812500000002 0.34549374999999993
vt 0.29296875 0.34549374999999993
vt 0.29296875 0.42274687499999997
vt 0.4006921875 0.9975746286914501
vt 0.3841640625 0.92032150369145
vt 0.4329664062098386 0.8984375
vt 0.47965703145889926 0.9621651215791318
vt 0.3070614636629799 0.7930797948076815
vt 0.2650234375 0.826146133060673
vt 0.23828125 0.7488930080606729
vt 0.19832585336494882 0.8748889551923185
vt 0.2109241667642947 0.9268683825519238
vt 0.12954563970196892 0.9190757419393271
vt 0.44170625 0.75
vt 0.425178125 0.672746875
vt 0.51171875 0.672746875
vt 0.495190625 0.75
vt 0.425178125 0.672746875
vt 0.425178125 0.5954937499999999
vt 0.51171875 0.5954937499999999
vt 0.51171875 0.672746875
vt 0.3305882810411007 0.87257462869145
vt 0.3471164060411007 0.79532150369145
vt 0.40060078104110075 0.79532150369145
vt 0.4171289060411007 0.87257462869145
vt 0.3196597770623258 0.7411003674480762
vt 0.3070614636629799 0.7930797948076815
vt 0.23828125 0.7488930080606729
vt 0.2109241667642947 0.9268683825519238
vt 0.18869036298555775 0.9755123579103302
vt 0.12954563970196892 0.9190757419393271
vt 0.016528124999999998 0.5
vt 0 0.42274687499999997
vt 0.086540625 0.42274687499999997
vt 0.0700125 0.5
vt 0 0.42274687499999997
vt 0 0.34549374999999993
vt 0.086540625 0.34549374999999993
vt 0.086540625 0.42274687499999997
vt 0.4171289060411007 0.87257462869145
vt 0.40060078104110075 0.79532150369145
vt 0.44940312475093935 0.7734375
vt 0.49609375 0.8371651215791318
vt 0.2974259732835889 0.6924563920896698
vt 0.3196597770623258 0.7411003674480762
vt 0.23828125 0.7488930080606728
vt 0.18869036298555775 0.9755123579103302
vt 0.14114108587192692 1
vt 0.12954563970196892 0.9190757419393271
vt 0.016528124999999998 0.75
vt 0 0.672746875
vt 0.086540625 0.672746875
vt 0.0700125 0.75
vt 0 0.672746875
vt 0 0.5954937499999999
vt 0.086540625 0.5954937499999999
vt 0.086540625 0.672746875
vt 0 0.5954937499999999
vt 0.016528124999999998 0.518240625
vt 0.0700125 0.518240625
vt 0.086540625 0.5954937499999999
vt 0.24987669616995806 0.66796875
vt 0.2974259732835889 0.6924563920896698
vt 0.23828125 0.7488930080606729
vt 0.11795019353201092 1
vt 0.07040091641838007 0.9755123579103302
vt 0.12954563970196892 0.9190757419393271
vt 0.44170625 0.578125
vt 0.425178125 0.500871875
vt 0.51171875 0.500871875
vt 0.495190625 0.578125
vt 0.425178125 0.500871875
vt 0.425178125 0.42361874999999993
vt 0.51171875 0.42361874999999993
vt 0.51171875 0.500871875
vt 0.518928125 0.90625
vt 0.53545625 0.828125
vt 0.588940625 0.828125
vt 0.60546875 0.90625
vt 0.17913652671641112 0.6924563920896698
vt 0.22668580383004194 0.66796875
vt 0.23828125 0.7488930080606729
vt 0.07040091641838007 0.9755123579103302
vt 0.04816711263964313 0.9268683825519238
vt 0.12954563970196892 0.9190757419393271
vt 0.33233125 0.6875
vt 0.315803125 0.610246875
vt 0.40234375 0.610246875
vt 0.385815625 0.6875
vt 0.315803125 0.610246875
vt 0.315803125 0.5329937499999999
vt 0.40234375 0.5329937499999999
vt 0.40234375 0.610246875
vt 0.315803125 0.5329937499999999
vt 0.33233125 0.455740625
vt 0.385815625 0.455740625
vt 0.40234375 0.5329937499999999
vt 0.1569027229376742 0.7411003674480762
vt 0.17913652671641112 0.6924563920896698
vt 0.23828125 0.7488930080606728
vt 0.04816711263964313 0.9268683825519238
vt 0.06076542603898902 0.8748889551923185
vt 0.12954563970196892 0.9190757419393271
vt 0.33233125 0.6875
vt 0.315803125 0.610246875
vt 0.40234375 0.610246875
vt 0.385815625 0.6875
vt 0.315803125 0.610246875
vt 0.315803125 0.5329937499999999
vt 0.40234375 0.5329937499999999
vt 0.40234375 0.610246875
vt 0.5 1
vt 0.516528125 0.921875
vt 0.5700125 0.921875
vt 0.586540625 1
vt 0.1695010363370201 0.7930797948076815
vt 0.1569027229376742 0.7411003674480762
vt 0.23828125 0.7488930080606729
vt 0.06076542603898902 0.8748889551923185
vt 0.10280345220196892 0.841822616939327
vt 0.12954563970196892 0.9190757419393271
vt 0.06076542603898902 0.8748889551923185
vt 0.000013333235705292878 0.8243873962232882
vt 0.06803314384227277 0.7708842641613488
vt 0.10280345220196893 0.841822616939327
vt 0.53125 0.8125
vt 0.53125 0.734375
vt 0.6171875 0.734375
vt 0.6171875 0.8125
vt 0.23518671854110074 0.9621651215791318
vt 0.2818773437901614 0.8984375
vt 0.3306796875 0.92032150369145
vt 0.3141515625 0.9975746286914501
vt 0.21153906249999999 0.826146133060673
vt 0.1695010363370201 0.7930797948076815
vt 0.23828125 0.7488930080606729
vt 0.10280345220196892 0.841822616939327
vt 0.15628782720196893 0.841822616939327
vt 0.12954563970196892 0.9190757419393271
vt 0.12755468749999999 0.65625
vt 0.11102656250000001 0.578996875
vt 0.1975671875 0.578996875
vt 0.18103906250000001 0.65625
vt 0.11102656250000001 0.578996875
vt 0.11102656250000001 0.5017437499999999
vt 0.1975671875 0.5017437499999999
vt 0.1975671875 0.578996875
vt 0.3141515625 0.9975746286914501
vt 0.3306796875 0.92032150369145
vt 0.3841640625 0.92032150369145
vt 0.4006921875 0.9975746286914501
vt 0.2650234375 0.826146133060673
vt 0.21153906249999999 0.826146133060673
vt 0.23828125 0.7488930080606729
vn 0.1986322951667912 0.9510565162951536 0.23672075137025694
vn 0.520026100010061 0.587785252292473 0.6197429729297461
vn 0.6427876096865393 3.3295566212221913e-16 0.7660444431189781
vn 0.5200261000100609 -0.5877852522924731 0.6197429729297461
vn 0.19863229516679126 -0.9510565162951536 0.23672075137025705
vn 0.30432233187297814 0.9510565162951536 0.05366023794132167
vn 0.7967262083790824 0.587785252292473 0.14048432677478692
vn 0.9848077530122081 3.850112991827695e-16 0.17364817766693036
vn 0.7967262083790824 -0.587785252292473 0.1404843267747868
vn 0.3043223318729782 -0.9510565162951536 0.05366023794132168
vn 0.2676165673298175 0.9510565162951536 -0.15450849718747364
vn 0.7006292692220369 0.587785252292473 -0.40450849718747356
vn 0.8660254037844388 3.3359663092834384e-16 -0.4999999999999998
vn 0.700629269222037 -0.5877852522924731 -0.4045084971874736
vn 0.26761656732981765 -0.9510565162951536 -0.15450849718747373
vn 0.1056900367061869 0.9510565162951536 -0.2903809893115786
vn 0.2767001083690215 0.587785252292473 -0.7602272997045331
vn 0.34202014332566893 2.3024413666162906e-16 -0.9396926207859083
vn 0.2767001083690214 -0.5877852522924731 -0.7602272997045328
vn 0.10569003670618697 -0.9510565162951536 -0.2903809893115788
vn -0.10569003670618689 0.9510565162951536 -0.29038098931157863
vn -0.27670010836902126 0.587785252292473 -0.760227299704533
vn -0.34202014332566877 3.376087408322328e-16 -0.9396926207859084
vn -0.27670010836902126 -0.5877852522924731 -0.7602272997045331
vn -0.10569003670618693 -0.9510565162951536 -0.29038098931157874
vn -0.2676165673298175 0.9510565162951536 -0.1545084971874737
vn -0.7006292692220368 0.5877852522924731 -0.40450849718747384
vn -0.8660254037844386 2.4538987873013136e-16 -0.5000000000000002
vn -0.7006292692220368 -0.5877852522924731 -0.40450849718747384
vn -0.26761656732981753 -0.9510565162951536 -0.1545084971874738
vn -0.30432233187297814 0.9510565162951536 0.05366023794132167
vn -0.7967262083790824 0.587785252292473 0.14048432677478692
vn -0.9848077530122081 3.4601906563668635e-16 0.17364817766693041
vn -0.7967262083790824 -0.5877852522924731 0.1404843267747868
vn -0.30432233187297825 -0.9510565162951536 0.05366023794132168
vn -0.1986322951667913 0.9510565162951538 0.23672075137025694
vn -0.5200261000100611 0.587785252292473 0.6197429729297459
vn -0.6427876096865396 3.685485634341275e-16 0.7660444431189778
vn -0.5200261000100611 -0.5877852522924731 0.619742972929746
vn -0.19863229516679132 -0.9510565162951536 0.236720751370257
vn -1.6036442832013492e-16 0.9510565162951536 0.30901699437494745
vn -3.8921264341263686e-16 0.5877852522924729 0.8090169943749476
vn -4.810932849604048e-16 3.59275717787243e-16 1
vn -4.1983952392855953e-16 -0.5877852522924731 0.8090169943749477
vn -1.6036442832013495e-16 -0.9510565162951536 0.3090169943749475
usemtl m_bbe583d6-de9f-bea2-2f73-de45a87e6fed
f 3/1/1 7/2/1 2/3/1
f 3/4/2 4/5/2 8/6/2 7/7/2
f 4/8/3 5/9/3 9/10/3 8/11/3
f 5/12/4 6/13/4 10/14/4 9/15/4
f 10/16/5 6/17/5 1/18/5
f 7/19/6 11/20/6 2/21/6
f 7/22/7 8/23/7 12/24/7 11/25/7
f 8/26/8 9/27/8 13/28/8 12/29/8
f 9/30/9 10/31/9 14/32/9 13/33/9
f 14/34/10 10/35/10 1/36/10
f 11/37/11 15/38/11 2/39/11
f 11/40/12 12/41/12 16/42/12 15/43/12
f 12/44/13 13/45/13 17/46/13 16/47/13
f 13/48/14 14/49/14 18/50/14 17/51/14
f 18/52/15 14/53/15 1/54/15
f 15/55/16 19/56/16 2/57/16
f 15/58/17 16/59/17 20/60/17 19/61/17
f 16/62/18 17/63/18 21/64/18 20/65/18
f 17/66/19 18/67/19 22/68/19 21/69/19
f 22/70/20 18/71/20 1/72/20
f 19/73/21 23/74/21 2/75/21
f 19/76/22 20/77/22 24/78/22 23/79/22
f 20/80/23 21/81/23 25/82/23 24/83/23
f 21/84/24 22/85/24 26/86/24 25/87/24
f 26/88/25 22/89/25 1/90/25
f 23/91/26 27/92/26 2/93/26
f 23/94/27 24/95/27 28/96/27 27/97/27
f 24/98/28 25/99/28 29/100/28 28/101/28
f 25/102/29 26/103/29 30/104/29 29/105/29
f 30/106/30 26/107/30 1/108/30
f 27/109/31 31/110/31 2/111/31
f 27/112/32 28/113/32 32/114/32 31/115/32
f 28/116/33 29/117/33 33/118/33 32/119/33
f 29/120/34 30/121/34 34/122/34 33/123/34
f 34/124/35 30/125/35 1/126/35
f 31/127/36 35/128/36 2/129/36
f 31/130/37 32/131/37 36/132/37 35/133/37
f 32/134/38 33/135/38 37/136/38 36/137/38
f 33/138/39 34/139/39 38/140/39 37/141/39
f 38/142/40 34/143/40 1/144/40
f 35/145/41 3/146/41 2/147/41
f 35/148/42 36/149/42 4/150/42 3/151/42
f 36/152/43 37/153/43 5/154/43 4/155/43
f 37/156/44 38/157/44 6/158/44 5/159/44
f 6/160/45 38/161/45 1/162/45