# Made in Blockbench 5.1.4
mtllib UFO.mtl

o cylinder
v 0.13397459621556132 0 0.49999999999999994
v 0.13397459621556132 0.125 0.49999999999999994
v 0.3660254037844386 0 0.36602540378443865
v 0.3660254037844386 0.125 0.36602540378443865
v 0.49999999999999994 0 0.13397459621556132
v 0.49999999999999994 0.125 0.13397459621556132
v 0.49999999999999994 0 -0.13397459621556138
v 0.49999999999999994 0.125 -0.13397459621556138
v 0.36602540378443865 0 -0.3660254037844386
v 0.36602540378443865 0.125 -0.3660254037844386
v 0.1339745962155615 0 -0.4999999999999999
v 0.1339745962155615 0.125 -0.4999999999999999
v -0.13397459621556113 0 -0.5
v -0.13397459621556113 0.125 -0.5
v -0.3660254037844386 0 -0.3660254037844387
v -0.3660254037844386 0.125 -0.3660254037844387
v -0.49999999999999994 0 -0.13397459621556126
v -0.49999999999999994 0.125 -0.13397459621556126
v -0.5 0 0.1339745962155611
v -0.5 0.125 0.1339745962155611
v -0.3660254037844387 0 0.36602540378443854
v -0.3660254037844387 0.125 0.36602540378443854
v -0.1339745962155613 0 0.49999999999999994
v -0.1339745962155613 0.125 0.49999999999999994
v 0.100480947161671 0.1875 0.37499999999999994
v 0.27451905283832895 0.1875 0.274519052838329
v -0.10048094716167097 0.1875 0.37499999999999994
v -0.274519052838329 0.1875 0.2745190528383289
v -0.375 0.1875 0.10048094716167083
v -0.37499999999999994 0.1875 -0.10048094716167094
v -0.27451905283832895 0.1875 -0.274519052838329
v -0.10048094716167084 0.1875 -0.375
v 0.10048094716167111 0.1875 -0.3749999999999999
v 0.274519052838329 0.1875 -0.27451905283832895
v 0.37499999999999994 0.1875 -0.10048094716167102
v 0.37499999999999994 0.1875 0.100480947161671
v -0.10048094716167084 -0.0625 -0.375
v 0.10048094716167111 -0.0625 -0.3749999999999999
v 0 -0.0625 0
v 0.274519052838329 -0.0625 -0.27451905283832895
v 0.37499999999999994 -0.0625 -0.10048094716167102
v 0.37499999999999994 -0.0625 0.100480947161671
v 0.27451905283832895 -0.0625 0.274519052838329
v 0.100480947161671 -0.0625 0.37499999999999994
v -0.10048094716167097 -0.0625 0.37499999999999994
v -0.274519052838329 -0.0625 0.2745190528383289
v -0.375 -0.0625 0.10048094716167083
v -0.37499999999999994 -0.0625 -0.10048094716167094
v -0.27451905283832895 -0.0625 -0.274519052838329
v 0.07536071037125333 0.25 -0.2812499999999999
v -0.07536071037125314 0.25 -0.28125
v 0 0.25 0
v -0.2058892896287467 0.25 -0.20588928962874675
v -0.28124999999999994 0.25 -0.0753607103712532
v -0.28125 0.25 0.07536071037125312
v -0.20588928962874675 0.25 0.20588928962874667
v -0.07536071037125322 0.25 0.28124999999999994
v 0.07536071037125325 0.25 0.28124999999999994
v 0.2058892896287467 0.25 0.20588928962874675
v 0.28124999999999994 0.25 0.07536071037125325
v 0.28124999999999994 0.25 -0.07536071037125328
v 0.20588928962874675 0.25 -0.2058892896287467
vt 0.8765313158266437 0.4337
vt 0.7895125658266438 0.483940625
vt 0.7392719408266437 0.296440625
vt 0.2701125 0.34375
vt 0.40408750000000004 0.34375
vt 0.40408750000000004 0.40625
vt 0.2701125 0.40625
vt 0.30823842829016923 0.5927678828099003
vt 0.37350092829016923 0.6304491328099003
vt 0.27055717829016923 0.7333928828099003
vt 0.9267719408266437 0.34668125000000005
vt 0.8765313158266437 0.4337
vt 0.7392719408266437 0.296440625
vt 0.5646625 0.9375
vt 0.6986375 0.9375
vt 0.6986375 1
vt 0.5646625 1
vt 0.37350092829016923 0.6304491328099003
vt 0.41118217829016923 0.6957116328099003
vt 0.27055717829016923 0.7333928828099003
vt 0.9267719408266437 0.24619999999999997
vt 0.9267719408266437 0.34668125000000005
vt 0.7392719408266437 0.296440625
vt 0.6986375 0.9375
vt 0.8326125 0.9375
vt 0.8326125 1
vt 0.6986375 1
vt 0.41118217829016923 0.6957116328099003
vt 0.41118217829016923 0.7710741328099003
vt 0.27055717829016923 0.7333928828099003
vt 0.8765313158266437 0.15918125000000005
vt 0.9267719408266437 0.24619999999999997
vt 0.7392719408266437 0.296440625
vt 0.8326125 0.9375
vt 0.9665875 0.9375
vt 0.9665875 1
vt 0.8326125 1
vt 0.41118217829016923 0.7710741328099003
vt 0.37350092829016923 0.8363366328099003
vt 0.27055717829016923 0.7333928828099003
vt 0.7895125658266438 0.10894062500000001
vt 0.8765313158266437 0.15918125000000005
vt 0.7392719408266437 0.296440625
vt 0.5959125 0.75
vt 0.7298875 0.75
vt 0.7298875 0.8125
vt 0.5959125 0.8125
vt 0.37350092829016923 0.8363366328099003
vt 0.30823842829016923 0.8740178828099003
vt 0.27055717829016923 0.7333928828099003
vt 0.6890313158266437 0.10894062500000001
vt 0.7895125658266438 0.10894062500000001
vt 0.7392719408266437 0.296440625
vt 0.7298875 0.75
vt 0.8638625 0.75
vt 0.8638625 0.8125
vt 0.7298875 0.8125
vt 0.30823842829016923 0.8740178828099003
vt 0.23287592829016923 0.8740178828099003
vt 0.27055717829016923 0.7333928828099003
vt 0.6020125658266438 0.15918125000000005
vt 0.6890313158266437 0.10894062500000001
vt 0.7392719408266437 0.296440625
vt 0.8638625 0.75
vt 0.9978375 0.75
vt 0.9978375 0.8125
vt 0.8638625 0.8125
vt 0.23287592829016923 0.8740178828099003
vt 0.16761342829016923 0.8363366328099003
vt 0.27055717829016923 0.7333928828099003
vt 0.5517719408266437 0.24619999999999997
vt 0.6020125658266438 0.15918125000000005
vt 0.7392719408266437 0.296440625
vt 0.5959125 0.84375
vt 0.7298875 0.84375
vt 0.7298875 0.90625
vt 0.5959125 0.90625
vt 0.16761342829016923 0.8363366328099003
vt 0.12993217829016923 0.7710741328099003
vt 0.27055717829016923 0.7333928828099003
vt 0.5517719408266437 0.34668125000000005
vt 0.5517719408266437 0.24619999999999997
vt 0.7392719408266437 0.296440625
vt 0.7298875 0.84375
vt 0.8638625 0.84375
vt 0.8638625 0.90625
vt 0.7298875 0.90625
vt 0.12993217829016923 0.7710741328099003
vt 0.12993217829016923 0.6957116328099003
vt 0.27055717829016923 0.7333928828099003
vt 0.6020125658266438 0.4337
vt 0.5517719408266437 0.34668125000000005
vt 0.7392719408266437 0.296440625
vt 0.8638625 0.84375
vt 0.9978375 0.84375
vt 0.9978375 0.90625
vt 0.8638625 0.90625
vt 0.12993217829016923 0.6957116328099003
vt 0.16761342829016923 0.6304491328099003
vt 0.27055717829016923 0.7333928828099003
vt 0.6890313158266437 0.483940625
vt 0.6020125658266438 0.4337
vt 0.7392719408266437 0.296440625
vt 0.002162499999999984 0.34375
vt 0.1361375 0.34375
vt 0.1361375 0.40625
vt 0.002162499999999984 0.40625
vt 0.16761342829016923 0.6304491328099003
vt 0.23287592829016923 0.5927678828099003
vt 0.27055717829016923 0.7333928828099003
vt 0.7895125658266438 0.483940625
vt 0.6890313158266437 0.483940625
vt 0.7392719408266437 0.296440625
vt 0.1361375 0.34375
vt 0.2701125 0.34375
vt 0.2701125 0.40625
vt 0.1361375 0.40625
vt 0.23287592829016923 0.5927678828099003
vt 0.30823842829016923 0.5927678828099003
vt 0.27055717829016923 0.7333928828099003
vt 0.4125498625541774 0.5879414253563302
vt 0.3255316606553971 0.537698872277634
vt 0.34596903035798976 0.46880965617365444
vt 0.4619932995563635 0.5357997269452495
vt 0.3207978032901692 0.5364303828099004
vt 0.22031655329016925 0.5364303828099004
vt 0.20356967829016923 0.4665522578099004
vt 0.3375446782901692 0.4665522578099004
vt 0.21558520049640945 0.5376974261886299
vt 0.12856699859762916 0.5879399792673261
vt 0.07912356159544309 0.5357982808562454
vt 0.19514783079381678 0.46880821008465035
vt 0.1251057208365992 0.5914001985458921
vt 0.07486316775790297 0.6784184004446724
vt 0.005973951653923337 0.6579810307420798
vt 0.07296402242551836 0.5419567615437061
vt 0.07359467829016922 0.6831522578099003
vt 0.07359467829016925 0.7836335078099004
vt 0.0037165532901692333 0.8003803828099003
vt 0.003716553290169178 0.6664053828099004
vt 0.07486172166889876 0.7883648606036602
vt 0.12510427474759506 0.8753830625024405
vt 0.07296257633651423 0.9248264995046265
vt 0.005972505564919184 0.8088022303062529
vt 0.12856449402616105 0.8788443402634704
vt 0.21558269592494134 0.9290868933421667
vt 0.1951453262223487 0.9979761094461462
vt 0.07912105702397498 0.9309860386745512
vt 0.714303125 0.71875
vt 0.613821875 0.71875
vt 0.597075 0.6484375
vt 0.73105 0.6484375
vt 0.3925694224277396 0.9405418449441167
vt 0.46027327996568385 0.8662944929641017
vt 0.5231914242143297 0.9010035306933133
vt 0.4329196141637374 1
vt 0.46027327996568385 0.8662944929641017
vt 0.4869672968373096 0.7694239036977002
vt 0.5587834467098308 0.771842745004778
vt 0.5231914242143297 0.9010035306933133
vt 0.120553125 0.3125
vt 0.020071875000000003 0.3125
vt 0.0033249999999999946 0.2421875
vt 0.1373 0.2421875
vt 0.4673409939048869 0.6721697669455589
vt 0.4125498625541774 0.5879414253563302
vt 0.4619932995563635 0.5357997269452495
vt 0.5350481413573095 0.6481041823975543
vt 0.7895125658266438 0.10894062500000001
vt 0.6890313158266437 0.10894062500000001
vt 0.6722844408266437 0.0390625
vt 0.8062594408266437 0.0390625
vt 0.876531739653623 0.15918149469820964
vt 0.7895125658266438 0.10894062500000001
vt 0.809948602860384 0.04005101354706142
vt 0.9259741679630229 0.10703883981134088
vt 0.9267721855248533 0.24620042382697926
vt 0.8765313158266437 0.15918125000000005
vt 0.9286739707135124 0.10973882169060012
vt 0.9956617969777919 0.22576438679323907
vt 0.9267719408266437 0.34668125000000005
vt 0.9267719408266437 0.24619999999999997
vt 0.9966500658266437 0.22945312500000004
vt 0.9966500658266437 0.363428125
vt 0.8765310711284341 0.43370042382697926
vt 0.9267719408266437 0.34668125000000005
vt 0.9956615522795823 0.36711728703374025
vt 0.9286737260153028 0.4831428521363792
vt 0.7895121419996645 0.4839408696982096
vt 0.8765313158266437 0.4337
vt 0.9259737441360437 0.48584265488686873
vt 0.8099481790334048 0.5528304811511482
vt 0.6891728260640326 0.489279715934238
vt 0.7895121419996645 0.4839408696982096
vt 0.8099481790334048 0.5528304811511482
vt 0.6761624244525622 0.5599489427991862
vt 0.5973136473521349 0.4485565912022368
vt 0.6891728260640326 0.489279715934238
vt 0.6761624244525622 0.5599489427991862
vt 0.5536835195033653 0.5056514431565178
vt 0.5338924432927978 0.37061922867805075
vt 0.5973136473521349 0.4485565912022368
vt 0.5536835195033653 0.5056514431565178
vt 0.4691219140909157 0.4017349597909363
vt 0.5126884583546282 0.27240073436916623
vt 0.5338924432927978 0.37061922867805075
vt 0.4691219140909157 0.4017349597909363
vt 0.4408499341733563 0.2707769673790903
vt 0.5383085885514315 0.17524060607436964
vt 0.5126884583546282 0.27240073436916623
vt 0.4408499341733563 0.2707769673790903
vt 0.47501010776909397 0.14123012965269466
vt 0.6890317396536229 0.10894038030179043
vt 0.6020125658266438 0.15918125000000005
vt 0.5525701375172437 0.10703859511313141
vt 0.6685957026198825 0.040050768848851837
vt 0.29163865827190927 0.9275317185717253
vt 0.36031144039287233 0.8964905297733443
vt 0.3949609039440982 0.9426540054034666
vt 0.30339909285115385 0.9840413990269176
vt 0.16761092371870112 0.8363351867208962
vt 0.23287592829016923 0.8740178828099003
vt 0.21558269592494134 0.9290868933421667
vt 0.12856449402616105 0.8788443402634704
vt 0.12993073220116508 0.7710716282384322
vt 0.16761342829016923 0.8363366328099003
vt 0.12510427474759506 0.8753830625024405
vt 0.07486172166889876 0.7883648606036602
vt 0.12993217829016923 0.6957116328099003
vt 0.12993217829016923 0.7710741328099003
vt 0.07359467829016925 0.7836335078099004
vt 0.07359467829016922 0.6831522578099003
vt 0.16761487437917338 0.6304466282384322
vt 0.12993217829016923 0.6957116328099003
vt 0.07486316775790294 0.6784184004446724
vt 0.1251057208365992 0.5914001985458921
vt 0.23287843286163734 0.5927664367208962
vt 0.16761342829016923 0.6304491328099003
vt 0.12856699859762916 0.5879399792673261
vt 0.21558520049640942 0.5376974261886299
vt 0.30823842829016923 0.5927678828099003
vt 0.23287592829016923 0.5927678828099003
vt 0.22031655329016925 0.5364303828099004
vt 0.3207978032901692 0.5364303828099004
vt 0.37350343286163734 0.6304505788989044
vt 0.30823842829016923 0.5927678828099003
vt 0.3255316606553971 0.537698872277634
vt 0.4125498625541774 0.5879414253563302
vt 0.41658264001979206 0.6922865580443405
vt 0.37350343286163734 0.6304505788989044
vt 0.41254986255417736 0.5879414253563302
vt 0.46998761454303567 0.6703876881462767
vt 0.429317665777356 0.7665652597373842
vt 0.41658264001979206 0.6922865580443405
vt 0.46998761454303567 0.6703876881462767
vt 0.4869672968373096 0.7694239036977002
vt 0.40929673802727423 0.8392197080408158
vt 0.429317665777356 0.7665652597373842
vt 0.4869672968373096 0.7694239036977002
vt 0.4602732799656838 0.8662944929641018
vt 0.36031144039287233 0.8964905297733443
vt 0.40929673802727423 0.8392197080408158
vt 0.4602732799656838 0.8662944929641018
vt 0.3949609039440982 0.9426540054034666
vn 0 -1 0
vn 0.4999999999999999 0 0.8660254037844388
vn 0 1 0
vn 0 -1 0
vn 0.8660254037844388 0 0.5
vn 0 1 0
vn 0 -1 0
vn 1 0 0
vn 0 1 0
vn 0 -1 0
vn 0.8660254037844388 0 -0.5
vn 0 1 0
vn 0 -1 0
vn 0.5000000000000001 0 -0.8660254037844388
vn 0 1 0
vn 0 -1 0
vn 4.143408735633879e-16 0 -1
vn 0 1 0
vn 0 -1 0
vn -0.4999999999999996 0 -0.8660254037844389
vn 0 1 0
vn 0 -1 0
vn -0.8660254037844389 0 -0.4999999999999998
vn 0 1 0
vn 0 -1 0
vn -1 0 -2.0717043678169412e-16
vn 0 1 0
vn 0 -1 0
vn -0.8660254037844389 0 0.4999999999999996
vn 0 1 0
vn 0 -1 0
vn -0.4999999999999999 0 0.8660254037844386
vn 0 1 0
vn 0 -1 0
vn 0 0 1
vn 0 1 0
vn 0.22360679774997888 0.894427190999916 0.38729833462074176
vn 0 0.894427190999916 0.447213595499958
vn -0.22360679774997896 0.8944271909999159 0.3872983346207417
vn -0.3872983346207418 0.8944271909999159 0.2236067977499789
vn -0.4472135954999579 0.894427190999916 -1.2353258121925088e-16
vn -0.38729833462074187 0.8944271909999161 -0.2236067977499789
vn -0.22360679774997885 0.8944271909999161 -0.38729833462074187
vn 2.470651624385015e-16 0.894427190999916 -0.4472135954999578
vn 0.22360679774997896 0.8944271909999159 -0.3872983346207418
vn 0.3872983346207417 0.894427190999916 -0.22360679774997888
vn 0.44721359549995804 0.8944271909999161 0
vn 0.38729833462074187 0.8944271909999161 0.223606797749979
vn 2.4706516243850166e-16 -0.894427190999916 -0.4472135954999581
vn 0.22360679774997896 -0.8944271909999161 -0.3872983346207418
vn 0.38729833462074187 -0.8944271909999161 -0.22360679774997896
vn 0.44721359549995804 -0.8944271909999161 0
vn 0.3872983346207418 -0.8944271909999161 0.22360679774997896
vn 0.2236067977499789 -0.8944271909999159 0.3872983346207418
vn 0 -0.894427190999916 0.447213595499958
vn -0.22360679774997896 -0.8944271909999159 0.3872983346207417
vn -0.3872983346207418 -0.8944271909999161 0.22360679774997888
vn -0.447213595499958 -0.8944271909999159 -1.2353258121925088e-16
vn -0.38729833462074187 -0.8944271909999161 -0.2236067977499789
vn -0.22360679774997885 -0.8944271909999161 -0.38729833462074187
vn 4.0859549132398953e-16 0.8320502943378438 -0.5547001962252291
vn -0.27735009811261446 0.8320502943378436 -0.4803844614152616
vn -0.4803844614152616 0.8320502943378438 -0.27735009811261446
vn -0.554700196225229 0.8320502943378437 -2.042977456619949e-16
vn -0.4803844614152616 0.8320502943378438 0.27735009811261446
vn -0.2773500981126146 0.8320502943378438 0.4803844614152616
vn 0 0.8320502943378438 0.5547001962252293
vn 0.2773500981126144 0.8320502943378437 0.4803844614152615
vn 0.4803844614152615 0.8320502943378437 0.2773500981126145
vn 0.5547001962252291 0.8320502943378437 0
vn 0.4803844614152615 0.8320502943378437 -0.27735009811261446
vn 0.27735009811261446 0.8320502943378437 -0.4803844614152615
usemtl m_9959b913-44ae-5dd0-bf04-5eeb863f3d92
f 43/1/1 44/2/1 39/3/1
f 1/4/2 3/5/2 4/6/2 2/7/2
f 58/8/3 59/9/3 52/10/3
f 42/11/4 43/12/4 39/13/4
f 3/14/5 5/15/5 6/16/5 4/17/5
f 59/18/6 60/19/6 52/20/6
f 41/21/7 42/22/7 39/23/7
f 5/24/8 7/25/8 8/26/8 6/27/8
f 60/28/9 61/29/9 52/30/9
f 40/31/10 41/32/10 39/33/10
f 7/34/11 9/35/11 10/36/11 8/37/11
f 61/38/12 62/39/12 52/40/12
f 38/41/13 40/42/13 39/43/13
f 9/44/14 11/45/14 12/46/14 10/47/14
f 62/48/15 50/49/15 52/50/15
f 37/51/16 38/52/16 39/53/16
f 11/54/17 13/55/17 14/56/17 12/57/17
f 50/58/18 51/59/18 52/60/18
f 49/61/19 37/62/19 39/63/19
f 13/64/20 15/65/20 16/66/20 14/67/20
f 51/68/21 53/69/21 52/70/21
f 48/71/22 49/72/22 39/73/22
f 15/74/23 17/75/23 18/76/23 16/77/23
f 53/78/24 54/79/24 52/80/24
f 47/81/25 48/82/25 39/83/25
f 17/84/26 19/85/26 20/86/26 18/87/26
f 54/88/27 55/89/27 52/90/27
f 46/91/28 47/92/28 39/93/28
f 19/94/29 21/95/29 22/96/29 20/97/29
f 55/98/30 56/99/30 52/100/30
f 45/101/31 46/102/31 39/103/31
f 21/104/32 23/105/32 24/106/32 22/107/32
f 56/108/33 57/109/33 52/110/33
f 44/111/34 45/112/34 39/113/34
f 23/114/35 1/115/35 2/116/35 24/117/35
f 57/118/36 58/119/36 52/120/36
f 26/121/37 25/122/37 2/123/37 4/124/37
f 25/125/38 27/126/38 24/127/38 2/128/38
f 27/129/39 28/130/39 22/131/39 24/132/39
f 28/133/40 29/134/40 20/135/40 22/136/40
f 29/137/41 30/138/41 18/139/41 20/140/41
f 30/141/42 31/142/42 16/143/42 18/144/42
f 31/145/43 32/146/43 14/147/43 16/148/43
f 32/149/44 33/150/44 12/151/44 14/152/44
f 33/153/45 34/154/45 10/155/45 12/156/45
f 34/157/46 35/158/46 8/159/46 10/160/46
f 35/161/47 36/162/47 6/163/47 8/164/47
f 36/165/48 26/166/48 4/167/48 6/168/48
f 38/169/49 37/170/49 13/171/49 11/172/49
f 40/173/50 38/174/50 11/175/50 9/176/50
f 41/177/51 40/178/51 9/179/51 7/180/51
f 42/181/52 41/182/52 7/183/52 5/184/52
f 43/185/53 42/186/53 5/187/53 3/188/53
f 44/189/54 43/190/54 3/191/54 1/192/54
f 45/193/55 44/194/55 1/195/55 23/196/55
f 46/197/56 45/198/56 23/199/56 21/200/56
f 47/201/57 46/202/57 21/203/57 19/204/57
f 48/205/58 47/206/58 19/207/58 17/208/58
f 49/209/59 48/210/59 17/211/59 15/212/59
f 37/213/60 49/214/60 15/215/60 13/216/60
f 51/217/61 50/218/61 33/219/61 32/220/61
f 53/221/62 51/222/62 32/223/62 31/224/62
f 54/225/63 53/226/63 31/227/63 30/228/63
f 55/229/64 54/230/64 30/231/64 29/232/64
f 56/233/65 55/234/65 29/235/65 28/236/65
f 57/237/66 56/238/66 28/239/66 27/240/66
f 58/241/67 57/242/67 27/243/67 25/244/67
f 59/245/68 58/246/68 25/247/68 26/248/68
f 60/249/69 59/250/69 26/251/69 36/252/69
f 61/253/70 60/254/70 36/255/70 35/256/70
f 62/257/71 61/258/71 35/259/71 34/260/71
f 50/261/72 62/262/72 34/263/72 33/264/72