# Made in Blockbench 5.0.7
mtllib TractorBeam.mtl

o cone
v 0 0 0
v 0 0.875 0
v 0.14681324646918337 0 0.5
v 0.39382757098641424 0 0.3412535328311812
v 0.5158044243681041 0 0.07416148017070537
v 0.47401701751282865 0 -0.21647631844399037
v 0.28173255684142967 0 -0.4383844155012948
v 6.381739277016263e-17 0 -0.5211085581132028
v -0.2817325568414297 0 -0.43838441550129476
v -0.47401701751282843 0 -0.2164763184439908
v -0.5158044243681043 0 0.07416148017070512
v -0.3938275709864142 0 0.3412535328311813
v -0.14681324646918342 0 0.5
vt 0.5211083944718818 0.7182700982092953
vt 0.43838587179932037 1
vt 0 0.7182700982092958
vt 0 -0.007781250000000073
vt 0.293625 -0.007781250000000073
vt 0.1468125 1
vt 0.5211105103001786 0.7182650183845041
vt 0.43838266266263154 1
vt 0 0.7182650183845041
vt 0 -0.007781250000000073
vt 0.293625 -0.007781250000000073
vt 0.1468125 1
vt 0.43838591270802324 0.7182678709914043
vt 0.5211105103001786 1
vt 0 0.9999999999999999
vt 0 -0.007781250000000073
vt 0.293625 -0.007781250000000073
vt 0.1468125 1
vt 0 0.4788895535658372
vt 0.28173705483454314 0.5616172529515786
vt 1.3877787807814457e-16 1
vt 0 -0.007781250000000073
vt 0.293625 -0.007781250000000073
vt 0.1468125 1
vt 0 0.47889375
vt 0.28173125 0.5616125000000001
vt 0 1
vt 0 -0.007781250000000073
vt 0.293625 -0.007781250000000073
vt 0.1468125 1
vt 0 0.5616125000000001
vt 0.28173125 0.47889375
vt 0.28173125 1
vt 0 -0.007781250000000073
vt 0.293625 -0.007781250000000073
vt 0.1468125 1
vt 0 0.9999999999999998
vt 0.08272611574047983 0.7182624801575181
vt 0.5211095863410713 1
vt 0 -0.007781250000000073
vt 0.293625 -0.007781250000000073
vt 0.1468125 1
vt 0 1
vt 0 0.7063737893809545
vt 0.500001594565081 0.8531852549037089
vt 0 -0.007781250000000073
vt 0.293625 -0.007781250000000073
vt 0.1468125 1
vt 0.28173612552884014 1
vt 0 0.9172760481322211
vt 0.28173612552884025 0.47889160552811805
vt 0 -0.007781250000000073
vt 0.293625 -0.007781250000000073
vt 0.1468125 1
vt 0.2817299270183229 1
vt 0 0.9172775632457378
vt 0.2817299270183229 0.47889165219097674
vt 0 -0.007781250000000073
vt 0.293625 -0.007781250000000073
vt 0.1468125 1
vt 0.293625 1
vt 0 1
vt 0.1468125 0.5
vt 0 -0.007781250000000073
vt 0.293625 -0.007781250000000073
vt 0.1468125 1
vn 0 -1 0
vn 0.46940768210838413 0.4961389383568339 0.7304126106686467
vn 0 -1 0
vn 0.7897817418235487 0.4961389383568339 0.360681236174431
vn 0 -1 0
vn 0.8594056788408639 0.4961389383568338 -0.12356388235333109
vn 0 -1 0
vn 0.6561743850965639 0.4961389383568339 -0.5685783412945837
vn 0 -1 0
vn 0.24461236039076054 0.4961389383568339 -0.833073194257392
vn 0 -1 0
vn -0.24461236039076054 0.4961389383568339 -0.833073194257392
vn 0 -1 0
vn -0.6561743850965637 0.49613893835683387 -0.568578341294584
vn 0 -1 0
vn -0.8594056788408638 0.4961389383568339 -0.123563882353332
vn 0 -1 0
vn -0.7897817418235484 0.4961389383568339 0.360681236174431
vn 0 -1 0
vn -0.469407682108384 0.49613893835683387 0.7304126106686467
vn 0 -1 0
vn 0 0.4961389383568338 0.8682431421244592
usemtl none
f 4/1/1 3/2/1 1/3/1
f 3/4/2 4/5/2 2/6/2
f 5/7/3 4/8/3 1/9/3
f 4/10/4 5/11/4 2/12/4
f 6/13/5 5/14/5 1/15/5
f 5/16/6 6/17/6 2/18/6
f 7/19/7 6/20/7 1/21/7
f 6/22/8 7/23/8 2/24/8
f 8/25/9 7/26/9 1/27/9
f 7/28/10 8/29/10 2/30/10
f 9/31/11 8/32/11 1/33/11
f 8/34/12 9/35/12 2/36/12
f 10/37/13 9/38/13 1/39/13
f 9/40/14 10/41/14 2/42/14
f 11/43/15 10/44/15 1/45/15
f 10/46/16 11/47/16 2/48/16
f 12/49/17 11/50/17 1/51/17
f 11/52/18 12/53/18 2/54/18
f 13/55/19 12/56/19 1/57/19
f 12/58/20 13/59/20 2/60/20
f 3/61/21 13/62/21 1/63/21
f 13/64/22 3/65/22 2/66/22